<?xml version="1.0" encoding="UTF-8"?>
<svg version="1.1" xmlns="http://www.w3.org/2000/svg" width="2000" height="2000">
<path d="M0 0 C660 0 1320 0 2000 0 C2000 660 2000 1320 2000 2000 C1340 2000 680 2000 0 2000 C0 1340 0 680 0 0 Z " fill="#FCFCFC" transform="translate(0,0)"/>
<path d="M0 0 C0.72564878 -0.00311998 1.45129755 -0.00623996 2.19893569 -0.00945449 C4.61925439 -0.01740223 7.03932013 -0.01112344 9.4596405 -0.00482178 C11.19959662 -0.00753314 12.93955159 -0.0110949 14.67950439 -0.01544189 C19.39863982 -0.02455285 24.11768771 -0.02102642 28.83682466 -0.01468372 C33.78138605 -0.00961464 38.72594002 -0.01431793 43.67050171 -0.01745605 C51.9768559 -0.02109407 60.28317452 -0.01630198 68.58952332 -0.0067749 C78.18023912 0.00409858 87.77086981 0.00059145 97.36158353 -0.01042771 C105.60467181 -0.01951811 113.84773454 -0.02077697 122.09082621 -0.01555037 C127.01003614 -0.01243893 131.92920614 -0.0119984 136.84841347 -0.01862335 C141.47691622 -0.0244213 146.10530986 -0.02035522 150.73380089 -0.00883484 C152.42804661 -0.00620086 154.12230159 -0.00693166 155.81654358 -0.01136017 C163.96361989 -0.03068396 171.68002897 -0.01845954 179.58146667 2.25396729 C179.91146667 3.90396729 180.24146667 5.55396729 180.58146667 7.25396729 C181.17959167 7.35709229 181.77771667 7.46021729 182.39396667 7.56646729 C185.04286101 8.39897693 185.98470073 8.97287308 187.58146667 11.25396729 C188.26896667 14.94146729 188.26896667 14.94146729 188.58146667 18.25396729 C189.24146667 18.25396729 189.90146667 18.25396729 190.58146667 18.25396729 C191.78631389 23.88923694 191.69443097 29.39932844 191.64396667 35.12896729 C191.63945496 36.10349854 191.63494324 37.07802979 191.6302948 38.08209229 C191.61857573 40.47278162 191.60216887 42.86334168 191.58146667 45.25396729 C199.74876716 44.82802639 207.91529218 44.38845832 216.08146667 43.94146729 C217.29505859 43.87527191 218.50865051 43.80907654 219.75901794 43.74087524 C233.86210418 42.96391232 247.91114662 42.06109517 261.95646667 40.56646729 C271.79071192 39.56288026 281.58285977 38.87285323 291.46580505 38.72525024 C293.44467859 38.69268963 295.4230618 38.63363318 297.40129089 38.57354736 C307.03311243 38.54451642 311.88838972 41.06232092 318.92131042 47.34381104 C319.44853699 47.9535376 319.97576355 48.56326416 320.51896667 49.19146729 C321.33687683 50.10218994 321.33687683 50.10218994 322.17131042 51.03131104 C325.84626962 56.82369824 325.88361971 63.07699433 325.90031433 69.72052002 C325.91035995 70.64549789 325.92040558 71.57047577 325.93075562 72.52348328 C325.96158885 75.57817014 325.97865941 78.6327677 325.99552917 81.68756104 C326.01428785 83.84292808 326.03386455 85.99828814 326.05421448 88.15364075 C326.10556853 93.84424506 326.14509438 99.53487434 326.18235779 105.22558594 C326.22180099 110.89592007 326.27339407 116.56614248 326.32365417 122.23638916 C326.40886206 131.97950662 326.47042543 141.7225746 326.52006912 151.46593285 C326.55129088 156.98205893 326.60824463 162.49659892 326.70413399 168.01198101 C326.75508509 171.02592818 326.79176596 174.03994503 326.82583237 177.05412483 C326.85385431 179.02768226 326.90263652 181.00091146 326.95222473 182.9740448 C327.05284179 193.64971945 327.05284179 193.64971945 322.58146667 198.25396729 C318.01574309 201.85565657 315.07961168 202.74869111 309.29093933 202.70806885 C308.58780609 202.70865295 307.88467285 202.70923706 307.16023254 202.70983887 C304.85481493 202.70707005 302.55071861 202.67603818 300.24552917 202.64459229 C298.63985399 202.63712554 297.03416964 202.63143466 295.42848206 202.62744141 C291.21640053 202.612219 287.00487674 202.57296719 282.79301453 202.52862549 C278.48950239 202.48759904 274.18589954 202.46941471 269.88224792 202.44927979 C261.44839913 202.40646899 253.01500242 202.33825964 244.58146667 202.25396729 C244.57782104 201.1227948 244.57417542 199.99162231 244.57041931 198.82617188 C244.53349912 188.17275642 244.47575909 177.51963083 244.39756393 166.866436 C244.3580326 161.38931824 244.32587185 155.91236262 244.31047058 150.43511963 C244.2953413 145.15054482 244.26096208 139.86641561 244.21315765 134.58203888 C244.19830534 132.56463745 244.19042346 130.54717242 244.18958282 128.52971649 C244.187223 125.70652093 244.16022305 122.88456669 244.12736511 120.06158447 C244.13239548 119.22504837 244.13742584 118.38851227 244.14260864 117.52662659 C244.07699406 113.88961215 243.89725128 111.69011639 241.73484802 108.70349121 C239.59931775 106.97476152 239.59931775 106.97476152 236.58146667 107.25396729 C236.58146667 106.59396729 236.58146667 105.93396729 236.58146667 105.25396729 C208.36646667 105.74896729 208.36646667 105.74896729 179.58146667 106.25396729 C179.25146667 107.24396729 178.92146667 108.23396729 178.58146667 109.25396729 C174.12432382 113.25396729 174.12432382 113.25396729 171.58146667 113.25396729 C171.58146667 132.72396729 171.58146667 152.19396729 171.58146667 172.25396729 C177.85146667 172.25396729 184.12146667 172.25396729 190.58146667 172.25396729 C190.58146667 231.65396729 190.58146667 291.05396729 190.58146667 352.25396729 C181.01146667 352.25396729 171.44146667 352.25396729 161.58146667 352.25396729 C158.58146667 338.25396729 158.58146667 338.25396729 158.58146667 335.25396729 C157.92146667 335.25396729 157.26146667 335.25396729 156.58146667 335.25396729 C156.34041199 335.82373291 156.0993573 336.39349854 155.85099792 336.98052979 C150.91118906 345.82658751 140.82501364 351.07045788 131.58146667 354.25396729 C115.64827111 357.27386365 98.78937867 356.02918628 84.95646667 347.01959229 C80.53538749 343.73286895 76.51149783 340.10881524 72.58146667 336.25396729 C72.01556824 335.71256104 71.4496698 335.17115479 70.86662292 334.61334229 C58.42998665 321.54992593 54.9948588 302.142157 55.30802917 284.80474854 C56.04155005 267.74130988 63.48810851 253.1733203 75.58146667 241.25396729 C76.13318542 240.69193604 76.68490417 240.12990479 77.25334167 239.55084229 C88.69484909 228.78902838 103.41219142 224.60719827 118.77287292 224.96881104 C135.13135047 226.19359961 144.24100925 231.1475556 156.58146667 242.25396729 C156.91146667 228.39396729 157.24146667 214.53396729 157.58146667 200.25396729 C155.93146667 199.59396729 154.28146667 198.93396729 152.58146667 198.25396729 C150.46836089 197.23055595 148.36435776 196.18817596 146.26896667 195.12896729 C145.20033386 194.59013916 144.13170105 194.05131104 143.03068542 193.49615479 C142.22244324 193.08623291 141.41420105 192.67631104 140.58146667 192.25396729 C140.58146667 191.59396729 140.58146667 190.93396729 140.58146667 190.25396729 C119.67479031 187.12171454 99.76163225 186.57446677 78.71696472 188.39898682 C65.61285244 189.50226884 52.47892795 190.00235848 39.34220886 190.55621338 C37.98160088 190.6151049 37.98160088 190.6151049 36.59350586 190.67518616 C34.89350009 190.74852891 33.19337961 190.81928239 31.49313354 190.88682556 C26.84809712 191.08751714 22.27250615 191.49274689 17.6557312 192.03657532 C12.5482359 192.5718631 7.39832257 192.438584 2.26896667 192.44146729 C1.10300964 192.45371338 -0.06294739 192.46595947 -1.26423645 192.47857666 C-2.94356262 192.48147705 -2.94356262 192.48147705 -4.65681458 192.48443604 C-5.66784241 192.48854492 -6.67887024 192.49265381 -7.72053528 192.49688721 C-10.45151785 192.25099745 -12.08831964 191.6544545 -14.41853333 190.25396729 C-14.41853333 189.59396729 -14.41853333 188.93396729 -14.41853333 188.25396729 C-15.09915833 188.08896729 -15.77978333 187.92396729 -16.48103333 187.75396729 C-22.17399097 184.84692509 -26.33977711 179.48380105 -28.77886581 173.60435867 C-30.2440892 168.22054855 -29.87063101 162.52972114 -29.87019348 156.987854 C-29.88081905 155.5399435 -29.89265143 154.09204143 -29.90559387 152.64414978 C-29.93627435 148.72437002 -29.94750522 144.80477284 -29.9532361 140.88488531 C-29.95760196 138.4302055 -29.96598553 135.97557233 -29.97573471 133.52090836 C-30.00945224 124.94069263 -30.026612 116.36061403 -30.02937317 107.78033447 C-30.03240329 99.80998206 -30.07279751 91.84040782 -30.13052142 83.8702811 C-30.17846516 77.00626959 -30.19910541 70.14251342 -30.19916379 63.27833569 C-30.19969931 59.18814333 -30.21104329 55.09871312 -30.25033951 51.0086937 C-30.28648525 47.15539736 -30.28832245 43.3035102 -30.26516724 39.45012856 C-30.26233235 38.0461795 -30.27115974 36.64214368 -30.29334641 35.23836708 C-30.44404027 25.06210044 -28.38452854 17.59954425 -22.41853333 9.25396729 C-15.70624864 2.59893635 -9.51251021 0.00553717 0 0 Z " fill="#C3E3AC" transform="translate(879.4185333251953,752.7460327148438)"/>
<path d="M0 0 C1.38762229 -0.02162317 2.77510661 -0.05577884 4.16210938 -0.10253906 C13.19160382 -0.40263225 19.74938193 0.07460348 26.64624023 6.4050293 C27.80446289 7.43950195 27.80446289 7.43950195 28.98608398 8.49487305 C29.77692383 9.40946289 29.77692383 9.40946289 30.58374023 10.3425293 C31.12901367 10.94967773 31.67428711 11.55682617 32.23608398 12.18237305 C35.91104318 17.97476025 35.94839327 24.22805634 35.96508789 30.87158203 C35.98015633 32.25904884 35.98015633 32.25904884 35.99552917 33.67454529 C36.02636241 36.72923216 36.04343297 39.78382971 36.06030273 42.83862305 C36.07906141 44.99399009 36.09863811 47.14935015 36.11898804 49.30470276 C36.17034209 54.99530707 36.20986794 60.68593636 36.24713135 66.37664795 C36.28657455 72.04698208 36.33816763 77.71720449 36.38842773 83.38745117 C36.47363562 93.13056863 36.53519899 102.87363661 36.58484268 112.61699486 C36.61606444 118.13312094 36.67301819 123.64766093 36.76890755 129.16304302 C36.81985865 132.17699019 36.85653952 135.19100705 36.89060593 138.20518684 C36.91862786 140.17874427 36.96741008 142.15197347 37.01699829 144.12510681 C37.11761535 154.80078147 37.11761535 154.80078147 32.64624023 159.4050293 C28.08051665 163.00671858 25.14438524 163.89975312 19.35571289 163.85913086 C18.65257965 163.85971497 17.94944641 163.86029907 17.2250061 163.86090088 C14.91958849 163.85813206 12.61549217 163.8271002 10.31030273 163.7956543 C8.70462754 163.78818755 7.0989432 163.78249667 5.49325562 163.77850342 C1.28117408 163.76328102 -2.9303497 163.7240292 -7.14221191 163.6796875 C-11.44572405 163.63866105 -15.7493269 163.62047672 -20.05297852 163.6003418 C-28.48682731 163.557531 -36.92022402 163.48932165 -45.35375977 163.4050293 C-45.35296417 162.27829803 -45.35216858 161.15156677 -45.35134888 159.99069214 C-45.34774506 149.36728931 -45.37555211 138.74437012 -45.43403816 128.12112236 C-45.46309866 122.65965262 -45.48112784 117.19861236 -45.47387695 111.73706055 C-45.46728508 106.46531736 -45.48976124 101.19442294 -45.5323143 95.92285538 C-45.54344796 93.91268053 -45.54414334 91.90241963 -45.5341835 89.89223862 C-45.52200983 87.07378586 -45.54709233 84.25792337 -45.58081055 81.43969727 C-45.56247917 80.19567894 -45.56247917 80.19567894 -45.54377747 78.92652893 C-45.63774097 74.56203907 -46.13710359 72.1109914 -49.21456909 68.90286255 C-52.87753382 65.60503098 -56.10910862 65.28086892 -60.92675781 65.29150391 C-62.06771408 65.29157944 -63.20867035 65.29165497 -64.38420105 65.29173279 C-65.61552261 65.29689407 -66.84684418 65.30205536 -68.11547852 65.30737305 C-69.37640823 65.30878799 -70.63733795 65.31020294 -71.93647766 65.31166077 C-75.28527685 65.31631355 -78.63400788 65.32529588 -81.98278809 65.33636475 C-85.4013612 65.34660242 -88.81994136 65.35116344 -92.23852539 65.35620117 C-98.94362238 65.3672383 -105.64868714 65.38398243 -112.35375977 65.4050293 C-112.97250977 66.5394043 -113.59125977 67.6737793 -114.22875977 68.8425293 C-116.10375977 72.2800293 -116.10375977 72.2800293 -118.35375977 73.4050293 C-118.68375977 81.6550293 -119.01375977 89.9050293 -119.35375977 98.4050293 C-125.17287924 98.56645797 -130.98412927 98.70554296 -136.80371094 98.78955078 C-138.77956567 98.82458882 -140.75524105 98.87223584 -142.73046875 98.93310547 C-161.25675505 99.48940829 -161.25675505 99.48940829 -166.88891602 95.37768555 C-168.65478516 93.70214844 -168.65478516 93.70214844 -170.35375977 91.4050293 C-170.78304779 90.87436859 -171.21233582 90.34370789 -171.65463257 89.79696655 C-176.00109338 83.85578674 -176.05528318 78.49555588 -175.94750977 71.3112793 C-175.94755005 70.16518188 -175.94759033 69.01908447 -175.94763184 67.83825684 C-175.94229022 65.42442313 -175.92476623 63.01058906 -175.89575195 60.59692383 C-175.85389056 56.91652883 -175.8546899 53.23796617 -175.86157227 49.55737305 C-175.85107872 47.20449583 -175.83813974 44.85162799 -175.82250977 42.4987793 C-175.82230835 41.40585571 -175.82210693 40.31293213 -175.82189941 39.18688965 C-175.66695322 29.11146448 -173.41431494 22.46558447 -166.16625977 15.2175293 C-154.03052611 7.39672316 -132.52194317 9.12566437 -118.65698242 8.74658203 C-113.13136762 8.58894921 -107.82494139 8.23184305 -102.35375977 7.4050293 C-98.28914032 7.14088114 -94.21746757 7.02012232 -90.14672852 6.88745117 C-84.22244616 6.65065859 -78.36521785 6.1152486 -72.47485352 5.4675293 C-62.05577966 4.32424879 -51.62172158 3.56448356 -41.16625977 2.8425293 C-38.45160413 2.65379956 -35.73703316 2.46405496 -33.02262878 2.27174377 C-31.35653128 2.15380171 -29.69028961 2.03787026 -28.02388 1.92442322 C-24.41148025 1.66961837 -20.8293321 1.35836403 -17.23901367 0.8815918 C-11.49987348 0.17763292 -5.77429047 0.06740417 0 0 Z " fill="#369A4C" transform="translate(1169.353759765625,791.594970703125)"/>
<path d="M0 0 C12.59012343 9.00590811 21.4633595 24.12188857 24.53515625 39.171875 C25.12414502 44.02237076 25.28245041 48.80444202 25.3125 53.6875 C25.32095947 54.98772095 25.32095947 54.98772095 25.32958984 56.31420898 C25.13913065 73.32156944 18.95367124 89.78044434 7.25 102.25 C-6.52950005 115.1831584 -22.76116415 119.57081983 -41.16015625 119.2734375 C-51.94306114 118.8487647 -61.65802571 114.82525169 -70 108 C-71.98 105.69 -73.96 103.38 -76 101 C-76.33 124.1 -76.66 147.2 -77 171 C-87.56 171 -98.12 171 -109 171 C-109 111.93 -109 52.86 -109 -8 C-99.43 -8 -89.86 -8 -80 -8 C-78.515 -0.08 -78.515 -0.08 -77 8 C-75.989375 7.13375 -74.97875 6.2675 -73.9375 5.375 C-72.97070312 4.55322266 -72.97070312 4.55322266 -71.984375 3.71484375 C-70.74666743 2.64525001 -69.52466016 1.55686777 -68.328125 0.44140625 C-49.07645547 -17.20595749 -20.4425193 -13.55027875 0 0 Z " fill="#1E7538" transform="translate(898,989)"/>
<path d="M0 0 C10.23 0 20.46 0 31 0 C31 59.07 31 118.14 31 179 C21.76 179 12.52 179 3 179 C0 165.375 0 165.375 0 162 C-0.66 162 -1.32 162 -2 162 C-2.24105469 162.56976562 -2.48210937 163.13953125 -2.73046875 163.7265625 C-7.67027762 172.57262022 -17.75645304 177.81649059 -27 181 C-42.93319557 184.01989637 -59.792088 182.775219 -73.625 173.765625 C-78.04607918 170.47890166 -82.06996884 166.85484795 -86 163 C-86.56589844 162.45859375 -87.13179687 161.9171875 -87.71484375 161.359375 C-100.15148003 148.29595865 -103.58660788 128.88818972 -103.2734375 111.55078125 C-102.53991662 94.48734259 -95.09335817 79.91935302 -83 68 C-82.44828125 67.43796875 -81.8965625 66.8759375 -81.328125 66.296875 C-69.88661758 55.53506109 -55.16927525 51.35323098 -39.80859375 51.71484375 C-24.21637131 52.88226143 -12.89488187 57.79698006 -2 69 C-1.67 69.66 -1.34 70.32 -1 71 C-0.67 47.57 -0.34 24.14 0 0 Z " fill="#1E7438" transform="translate(1038,926)"/>
<path d="M0 0 C9.15711873 7.67468467 15.25110305 17.11285154 17.31640625 28.94140625 C17.31640625 31.91140625 17.31640625 34.88140625 17.31640625 37.94140625 C6.09640625 37.94140625 -5.12359375 37.94140625 -16.68359375 37.94140625 C-17.67359375 34.31140625 -18.66359375 30.68140625 -19.68359375 26.94140625 C-24.27049533 20.29507946 -28.73886519 16.70935697 -36.68359375 14.94140625 C-44.72964936 14.0028627 -51.77616258 14.47104369 -58.68359375 18.94140625 C-62.55290633 22.31676403 -65.49433501 25.04661816 -66.01953125 30.3046875 C-66.03242187 31.60792969 -66.0453125 32.91117188 -66.05859375 34.25390625 C-66.10113281 36.19716797 -66.10113281 36.19716797 -66.14453125 38.1796875 C-65.52923077 43.20116513 -63.51516338 46.02557555 -60.0703125 49.62890625 C-52.03432704 55.83601226 -42.18657097 58.72007612 -32.71484375 62.0390625 C7.88921156 76.28919663 7.88921156 76.28919663 17.94140625 93.56640625 C23.9895135 106.21406583 24.20954655 120.79654376 19.5859375 133.96484375 C16.62213005 140.9138323 13.03206214 146.92278157 7.31640625 151.94140625 C6.83945312 152.40933594 6.3625 152.87726563 5.87109375 153.359375 C-9.10416098 167.43032691 -28.96412501 168.63694443 -48.36816406 168.04638672 C-64.50285191 167.31484773 -81.65121653 159.89123687 -92.68359375 147.94140625 C-101.13533194 136.8625429 -104.68359375 125.77345922 -104.68359375 111.94140625 C-93.46359375 111.94140625 -82.24359375 111.94140625 -70.68359375 111.94140625 C-70.02359375 115.24140625 -69.36359375 118.54140625 -68.68359375 121.94140625 C-65.95314381 128.9775657 -61.88192296 134.39923766 -54.94677734 137.79077148 C-49.86677448 139.90733464 -45.28018845 140.45336966 -39.80859375 140.37890625 C-39.0206543 140.37060791 -38.23271484 140.36230957 -37.42089844 140.35375977 C-30.33420172 140.14863391 -24.27967196 139.12952601 -18.82421875 134.29296875 C-13.39629056 128.3739423 -12.20390986 122.86876029 -12.37890625 114.9453125 C-12.91563151 109.65375196 -14.56405338 106.040998 -18.34375 102.296875 C-27.38331905 94.96498635 -38.99924443 91.7081482 -49.87109375 88.12890625 C-67.90251035 82.04511592 -87.13003394 75.4128136 -96.86328125 57.640625 C-97.13398437 57.07988281 -97.4046875 56.51914062 -97.68359375 55.94140625 C-98.30234375 54.67296875 -98.30234375 54.67296875 -98.93359375 53.37890625 C-102.60870613 41.43479103 -102.27909085 26.16401343 -96.68359375 14.94140625 C-88.77630936 1.42250068 -77.15155847 -6.54528664 -62.3046875 -11.09375 C-41.27291098 -16.23804119 -17.5870888 -13.07034048 0 0 Z " fill="#1F7539" transform="translate(645.68359375,940.05859375)"/>
<path d="M0 0 C11.10259234 9.47823117 17.24495101 21.00381293 21.21484375 34.8984375 C21.21484375 43.1484375 21.21484375 51.3984375 21.21484375 59.8984375 C-9.80515625 59.8984375 -40.82515625 59.8984375 -72.78515625 59.8984375 C-68.00294693 77.03855429 -68.00294693 77.03855429 -55.66015625 86.8359375 C-46.87798325 90.97450145 -37.3395886 91.05540242 -28.1796875 88.01171875 C-23.29665913 85.74146902 -18.84618169 82.28743426 -16.63525391 77.30932617 C-14.78515625 74.8984375 -14.78515625 74.8984375 -11.50708008 74.33081055 C-10.16852146 74.33159987 -8.829796 74.3597252 -7.4921875 74.41015625 C-6.78615891 74.41723099 -6.08013031 74.42430573 -5.35270691 74.43159485 C-3.09994041 74.4595622 -0.84966977 74.52229416 1.40234375 74.5859375 C2.93030261 74.61101784 4.45830048 74.63383149 5.98632812 74.65429688 C9.73012681 74.70939506 13.47206234 74.79567464 17.21484375 74.8984375 C15.14721671 88.47834995 5.53618255 99.30984255 -5.26953125 107.30078125 C-20.60255624 117.03868066 -38.37182202 119.48307368 -56.1640625 116.2109375 C-73.56612495 111.9273529 -87.23427056 102.04746609 -96.78515625 86.8984375 C-105.97449976 69.8259664 -107.4990558 49.08342459 -102.04296875 30.62109375 C-96.536179 14.32304831 -86.4051562 1.5114241 -71.09765625 -6.3515625 C-47.87722065 -17.66387689 -20.82930463 -15.71692271 0 0 Z " fill="#1F7538" transform="translate(1189.78515625,991.1015625)"/>
<path d="M0 0 C10.89 0 21.78 0 33 0 C33.33 34.32 33.66 68.64 34 104 C39.76728711 97.65598418 45.23981699 91.5135132 50.5859375 84.8828125 C53.77010213 81.08036348 57.14598199 77.47866035 60.53613281 73.8605957 C64.65149473 69.44286717 68.48681862 64.86172689 72.2578125 60.14453125 C74 58 74 58 76 56 C78.86888581 55.82467711 81.63992645 55.76862386 84.5078125 55.8046875 C85.34843231 55.8075174 86.18905212 55.81034729 87.05514526 55.81326294 C89.74524046 55.8244757 92.4350051 55.84958197 95.125 55.875 C96.94660978 55.8850284 98.76822477 55.89415449 100.58984375 55.90234375 C105.06002358 55.92441858 109.52995571 55.95895566 114 56 C109.89608887 61.7349894 105.44291685 66.91602558 100.5625 72 C96.14957433 76.62521586 91.82534461 81.29527121 87.63647461 86.125 C85.30543073 88.79580665 82.90571171 91.39617085 80.5 94 C72.41923042 102.72229615 72.41923042 102.72229615 65 112 C66.56232021 115.67956291 68.83584082 118.16515793 71.5625 121.0625 C74.97608641 124.73250604 78.23955183 128.45998885 81.375 132.375 C85.24218863 137.1714071 89.34980716 141.6704146 93.55810547 146.16357422 C97.45238782 150.34512954 101.06120141 154.70281934 104.6328125 159.1640625 C107.90874049 163.08868911 111.39438833 166.80470025 114.92773438 170.49804688 C117.75689714 173.49252592 119.94545694 176.44224253 122 180 C84.35170086 182.94418758 84.35170086 182.94418758 76.61328125 176.70703125 C73.50191863 173.26054271 71.2621254 169.39639582 69.18896484 165.25683594 C67.37757116 161.81853548 64.97412226 158.97708873 62.5 156 C61.61292037 154.8682031 60.72884117 153.73404862 59.84765625 152.59765625 C56.08991318 147.81471009 52.19744666 143.14136475 48.296875 138.47460938 C43.00543579 132.10854296 38.06255049 125.58131564 33 119 C32.67 139.13 32.34 159.26 32 180 C21.44 180 10.88 180 0 180 C0 120.6 0 61.2 0 0 Z " fill="#21763A" transform="translate(1344,925)"/>
<path d="M0 0 C1.55074219 0.08701172 1.55074219 0.08701172 3.1328125 0.17578125 C14.26391546 1.31077086 27.09576853 6.45958228 34.61328125 15.08203125 C40.19074233 22.79620981 44 29.29785427 44 39 C34.1 39 24.2 39 14 39 C12.68 36.36 11.36 33.72 10 31 C5.44168399 26.44168399 -0.66343871 25.69417106 -6.875 25.625 C-13.0830209 25.71031107 -16.85923386 26.53986894 -22 30 C-24.45230637 33.67845955 -24.80608313 36.72689267 -24 41 C-17.96446543 48.24264149 -5.74115299 49.9121018 3 51.8125 C36.56540743 59.52377412 36.56540743 59.52377412 44.875 72 C49.74960028 80.18114733 50.25880541 89.38143718 48.5 98.62890625 C46.8802527 103.92069431 44.29123926 108.56913496 41 113 C40.56558594 113.58523438 40.13117188 114.17046875 39.68359375 114.7734375 C35.86777074 119.17707659 31.24790589 121.70512164 26.125 124.3125 C25.13536255 124.81910156 25.13536255 124.81910156 24.12573242 125.3359375 C9.12242079 132.5995768 -11.01286365 132.34591234 -26.6796875 127.31640625 C-41.88711342 121.28710915 -51.6012988 112.94899435 -58.8203125 98.39453125 C-60 95 -60 95 -60 88 C-49.44 88 -38.88 88 -28 88 C-26.68 90.64 -25.36 93.28 -24 96 C-22.36614977 98.01855876 -22.36614977 98.01855876 -20.5625 99.375 C-20.00691406 99.83648438 -19.45132812 100.29796875 -18.87890625 100.7734375 C-11.83870671 105.36932659 -3.10772523 104.81056988 5 104 C9.58411031 102.86843841 12.21680911 101.10136219 15 97.1875 C16.16178199 93.48431989 16.49106434 90.85836267 16 87 C13.0162078 82.07522052 9.36337129 80.60381802 4.0625 79 C3.27907227 78.74927734 2.49564453 78.49855469 1.68847656 78.24023438 C-4.39102068 76.35011126 -10.54254035 74.89921323 -16.75 73.5 C-31.5490351 70.1162875 -45.17599533 65.27415111 -54 52 C-57.77624976 44.6643797 -57.27888684 34.31320391 -54.97265625 26.53515625 C-50.17679141 16.21275465 -42.68277547 8.94344678 -32.3671875 4.21875 C-21.9629987 0.45296473 -11.02079443 -0.72830686 0 0 Z " fill="#1F7539" transform="translate(1280,978)"/>
<path d="M0 0 C10.56 0 21.12 0 32 0 C32 59.4 32 118.8 32 180 C21.44 180 10.88 180 0 180 C0 120.6 0 61.2 0 0 Z " fill="#1F7539" transform="translate(683,925)"/>
<path d="M0 0 C8.47688511 6.93563327 14.01474073 15.12148636 15.16015625 26.2265625 C15.63161924 38.46724587 13.24287662 49.22997894 4.77734375 58.3828125 C-3.29799218 66.10209305 -11.07841781 68.92375452 -22.20947266 68.78686523 C-32.71410389 68.28209724 -40.36652439 64.26251951 -47.41015625 56.58203125 C-55.57389417 46.23436345 -56.35892584 33.93575489 -55.25 21.25 C-53.51234826 12.16523017 -47.25548275 5.19343383 -40.1328125 -0.41796875 C-27.31756526 -8.91991293 -12.9651263 -6.98122186 0 0 Z " fill="#FAFCFB" transform="translate(1023.25,1011.75)"/>
<path d="M0 0 C8.03257919 6.57061692 12.91493429 16.4697751 14.0703125 26.703125 C14.45599066 38.37631746 11.73955484 48.6550275 3.6875 57.3125 C-3.24488615 64.09083312 -11.42137198 67.24714802 -21 67.5 C-31.28777173 67.31710628 -38.45278137 65.2203496 -46.3125 58.3125 C-53.66948304 50.54504151 -57.00297355 41.92106808 -56.75 31.3125 C-56.75708984 30.47460938 -56.76417969 29.63671875 -56.77148438 28.7734375 C-56.6733283 19.01823369 -53.57884668 10.80671191 -47.3125 3.3125 C-33.99743368 -9.1094826 -15.01362469 -10.22749766 0 0 Z " fill="#FAFCFC" transform="translate(877.3125,1012.6875)"/>
<path d="M0 0 C10.56 0 21.12 0 32 0 C32 40.92 32 81.84 32 124 C21.44 124 10.88 124 0 124 C0 83.08 0 42.16 0 0 Z " fill="#1D7437" transform="translate(736,981)"/>
<path d="M0 0 C5.23920742 4.13467302 8.73203647 9.15310744 10.78125 15.52734375 C10.78125 17.50734375 10.78125 19.48734375 10.78125 21.52734375 C-9.34875 21.52734375 -29.47875 21.52734375 -50.21875 21.52734375 C-49.12550848 12.78141157 -46.89384906 7.56506921 -40.34375 1.71484375 C-27.81604873 -7.05454714 -13.1776026 -8.74640173 0 0 Z " fill="#F8FAF9" transform="translate(1168.21875,1009.47265625)"/>
<path d="M0 0 C4.07733699 3.00343453 7.21919777 6.52868707 8.82421875 11.34375 C9.60969489 17.87221562 8.59813027 22.92259371 4.82421875 28.34375 C0.01605089 33.15191786 -4.89899787 34.44312362 -11.55078125 34.71875 C-16.87814214 34.59569954 -20.93443406 33.65219316 -25.17578125 30.34375 C-30.09149925 24.94994471 -31.54786827 20.08634684 -31.453125 12.84375 C-30.8947706 7.81069626 -27.85479803 4.81777659 -24.23828125 1.59375 C-16.80615995 -3.86658402 -8.15554165 -4.63195063 0 0 Z " fill="#20763A" transform="translate(763.17578125,927.65625)"/>
<path d="M0 0 C0.99387222 0.00285004 1.98774445 0.00570007 3.01173401 0.00863647 C4.13977951 0.00248322 5.26782501 -0.00367004 6.43005371 -0.01000977 C7.64882706 0.00436127 8.8676004 0.0187323 10.12330627 0.03353882 C11.3747493 0.03445526 12.62619232 0.0353717 13.91555786 0.03631592 C16.56486619 0.04236412 19.21278661 0.05599797 21.86183167 0.08285522 C25.25253373 0.11680087 28.64264001 0.12448474 32.03349209 0.12296486 C35.27182218 0.12364055 38.51002795 0.14132661 41.74830627 0.15853882 C42.96505539 0.16076447 44.1818045 0.16299011 45.4354248 0.1652832 C46.56662247 0.17804291 47.69782013 0.19080261 48.86329651 0.20394897 C50.35529823 0.21538437 50.35529823 0.21538437 51.87744141 0.22705078 C54.55285469 0.49963601 56.20967337 1.12827373 58.50221252 2.49447632 C57.84221252 3.15447632 57.18221252 3.81447632 56.50221252 4.49447632 C56.50221252 3.83447632 56.50221252 3.17447632 56.50221252 2.49447632 C28.28721252 2.98947632 28.28721252 2.98947632 -0.49778748 3.49447632 C-0.82778748 4.48447632 -1.15778748 5.47447632 -1.49778748 6.49447632 C-3.45375931 7.89159906 -5.45215149 9.23227539 -7.49778748 10.49447632 C-4.67031275 0.92456187 -4.67031275 0.92456187 0 0 Z " fill="#B4D6B0" transform="translate(1059.497787475586,855.5055236816406)"/>
<path d="M0 0 C0.33 1.32 0.66 2.64 1 4 C1.79744629 3.83701416 2.59489258 3.67402832 3.41650391 3.50610352 C7.7566901 2.89313131 11.95981726 2.87558208 16.3359375 2.90234375 C17.21528961 2.9037587 18.09464172 2.90517365 19.00064087 2.90663147 C21.79212942 2.91220123 24.58353594 2.9247481 27.375 2.9375 C29.27473842 2.94251891 31.1744781 2.94708113 33.07421875 2.95117188 C37.71617714 2.96216075 42.35807469 2.97940443 47 3 C47 3.66 47 4.32 47 5 C45.55379272 5.03758423 45.55379272 5.03758423 44.07836914 5.07592773 C40.51312158 5.16985306 36.94807567 5.27010939 33.38305664 5.37231445 C31.83785711 5.41571985 30.29260786 5.45739071 28.74731445 5.49731445 C26.53060904 5.55488199 24.3141552 5.61861424 22.09765625 5.68359375 C21.4028566 5.70030624 20.70805695 5.71701874 19.99220276 5.73423767 C16.71237971 5.56502856 16.71237971 5.56502856 14 7 C11.64686445 7.07271741 9.29166332 7.08370868 6.9375 7.0625 C5.64714844 7.05347656 4.35679688 7.04445313 3.02734375 7.03515625 C2.02832031 7.02355469 1.02929688 7.01195312 0 7 C0 4.69 0 2.38 0 0 Z " fill="#2C9944" transform="translate(1126,947)"/>
<path d="M0 0 C-5.5452182 5.38859468 -10.51294379 5.61356863 -18.00828552 5.56648254 C-19.45214793 5.54095646 -20.89600064 5.5148766 -22.33984375 5.48828125 C-23.83198354 5.47894398 -25.32413877 5.47183218 -26.81629944 5.46684265 C-30.7244067 5.44784419 -34.63156982 5.39880766 -38.53930664 5.34332275 C-42.53453808 5.29197409 -46.5299236 5.2692955 -50.52539062 5.24414062 C-58.35068865 5.19067977 -66.17521153 5.10545666 -74 5 C-74 4.67 -74 4.34 -74 4 C-52.22 3.67 -30.44 3.34 -8 3 C-7.67 2.01 -7.34 1.02 -7 0 C-3.86650268 -1.04449911 -3.01031744 -0.93423645 0 0 Z " fill="#4B995C" transform="translate(1203,950)"/>
<path d="M0 0 C-2.90470944 1.64438463 -5.07871379 2.26767842 -8.40625 2.37890625 C-9.23253906 2.41306641 -10.05882812 2.44722656 -10.91015625 2.48242188 C-11.76480469 2.50884766 -12.61945313 2.53527344 -13.5 2.5625 C-15.19804865 2.62268724 -16.89597792 2.68636617 -18.59375 2.75390625 C-19.34333984 2.77783447 -20.09292969 2.8017627 -20.86523438 2.82641602 C-22.98333148 2.9346852 -22.98333148 2.9346852 -24.90917969 3.50927734 C-27.60091682 4.14103723 -30.09535716 4.11175838 -32.859375 4.09765625 C-33.97441406 4.09443359 -35.08945313 4.09121094 -36.23828125 4.08789062 C-37.39714844 4.07951172 -38.55601563 4.07113281 -39.75 4.0625 C-40.92433594 4.05798828 -42.09867188 4.05347656 -43.30859375 4.04882812 C-46.20578072 4.03705094 -49.10286454 4.02060326 -52 4 C-52 3.67 -52 3.34 -52 3 C-34.77662313 0.68103553 -17.37689839 -0.15088479 0 0 Z " fill="#6EB571" transform="translate(1067,800)"/>
<path d="M0 0 C1.32114304 0.0001133 1.32114304 0.0001133 2.66897583 0.00022888 C3.62109955 0.00539017 4.57322327 0.01055145 5.55419922 0.01586914 C7.01489334 0.01799156 7.01489334 0.01799156 8.50509644 0.02015686 C11.62305745 0.02576566 14.74094732 0.03831966 17.85888672 0.05102539 C19.96956277 0.05603926 22.08023994 0.06060236 24.19091797 0.06469727 C29.37193193 0.07573794 34.55290424 0.09248466 39.73388672 0.11352539 C39.73388672 0.77352539 39.73388672 1.43352539 39.73388672 2.11352539 C38.36006836 2.10567017 38.36006836 2.10567017 36.95849609 2.09765625 C33.4768813 2.08035331 29.99531384 2.06795099 26.51367188 2.05859375 C25.02245349 2.05364325 23.53123973 2.04688113 22.04003906 2.03808594 C11.5613611 1.97794498 1.18382021 2.32907287 -9.26611328 3.11352539 C-5.7221326 0.7508716 -4.1618115 -0.01189089 0 0 Z " fill="#C5EDD5" transform="translate(1149.26611328125,790.886474609375)"/>
<path d="M0 0 C12.21 0 24.42 0 37 0 C37 0.33 37 0.66 37 1 C29.50572308 2.02267318 22.18083085 2.08461177 14.625 2 C12.30473376 1.97453056 9.98441347 1.95348405 7.6640625 1.9375 C6.13966553 1.92009766 6.13966553 1.92009766 4.58447266 1.90234375 C1.88226219 1.88358976 1.88226219 1.88358976 -1 3 C-0.67 2.01 -0.34 1.02 0 0 Z " fill="#FAF8ED" transform="translate(1059,858)"/>
<path d="M0 0 C1.91635217 -0.05423638 3.83314925 -0.09289963 5.75 -0.125 C7.35101562 -0.15980469 7.35101562 -0.15980469 8.984375 -0.1953125 C11.92470106 -0.00487687 13.52361878 0.47329896 16 2 C16 2.66 16 3.32 16 4 C17.32 4.33 18.64 4.66 20 5 C14.96488101 6.0070238 11.76052962 5.97387813 7 4 C7 3.34 7 2.68 7 2 C6.1028125 2.2784375 6.1028125 2.2784375 5.1875 2.5625 C3 3 3 3 0 2 C0 1.34 0 0.68 0 0 Z " fill="#279440" transform="translate(1173,793)"/>
<path d="M0 0 C1.19947266 0.05671875 2.39894531 0.1134375 3.63476562 0.171875 C6.56971474 0.31219129 9.50365435 0.46348048 12.4375 0.625 C12.4375 0.955 12.4375 1.285 12.4375 1.625 C4.88827186 2.65040318 -2.51340843 2.74225965 -10.125 2.6875 C-11.32447266 2.68298828 -12.52394531 2.67847656 -13.75976562 2.67382812 C-16.69406359 2.66213769 -19.62825449 2.64575138 -22.5625 2.625 C-22.5625 2.295 -22.5625 1.965 -22.5625 1.625 C-14.86893681 -0.53084337 -7.94050943 -0.43943052 0 0 Z " fill="#CADEB8" transform="translate(891.5625,942.375)"/>
<path d="M0 0 C2.98053528 3.33819951 2.98053528 3.33819951 3.0625 6.125 C1.43916154 8.98971492 -0.94645678 9.10938323 -4 10 C-4.33 10.66 -4.66 11.32 -5 12 C-6.98 12 -8.96 12 -11 12 C-5.77245509 6.48203593 -5.77245509 6.48203593 -2 5 C-1.67 5 -1.34 5 -1 5 C-0.67 3.35 -0.34 1.7 0 0 Z " fill="#31A144" transform="translate(1200,941)"/>
<path d="M0 0 C1.12148438 0.04833984 2.24296875 0.09667969 3.3984375 0.14648438 C5.161875 0.2305957 5.161875 0.2305957 6.9609375 0.31640625 C8.73597656 0.3947168 8.73597656 0.3947168 10.546875 0.47460938 C13.47681311 0.60456631 16.40643423 0.73954153 19.3359375 0.87890625 C19.3359375 1.20890625 19.3359375 1.53890625 19.3359375 1.87890625 C5.9709375 2.37390625 5.9709375 2.37390625 -7.6640625 2.87890625 C-7.6640625 2.21890625 -7.6640625 1.55890625 -7.6640625 0.87890625 C-4.96635992 -0.46994504 -3.01132875 -0.13687858 0 0 Z " fill="#CCE0BA" transform="translate(927.6640625,940.12109375)"/>
<path d="M0 0 C0.33 0 0.66 0 1 0 C1.05834353 3.22909006 1.09371115 6.45804338 1.125 9.6875 C1.14175781 10.59951172 1.15851563 11.51152344 1.17578125 12.45117188 C1.24088394 21.40279157 1.24088394 21.40279157 -1 25 C-4.125 25.8125 -4.125 25.8125 -7 26 C-6.57847656 25.63132812 -6.15695312 25.26265625 -5.72265625 24.8828125 C0.89855137 17.87212207 -0.0194171 9.08720499 0 0 Z " fill="#B3DEBC" transform="translate(1206,927)"/>
<path d="M0 0 C1.32 0 2.64 0 4 0 C4.33 3.63 4.66 7.26 5 11 C1 9 1 9 0 7 C-0.04022391 4.6670134 -0.04320247 2.33293334 0 0 Z " fill="#288A3E" transform="translate(1043,866)"/>
<path d="M0 0 C19.18906606 -0.92255125 19.18906606 -0.92255125 26 5 C23.50907189 6.24546405 22.58919267 5.7767578 20 5 C20 4.34 20 3.68 20 3 C15.94691667 1.89210465 11.92888626 1.66268733 7.75 1.4375 C7.00492188 1.39431641 6.25984375 1.35113281 5.4921875 1.30664062 C3.661651 1.20103275 1.83084824 1.10005799 0 1 C0 0.67 0 0.34 0 0 Z " fill="#479D63" transform="translate(1169,792)"/>
<path d="M0 0 C-5.41538462 4.06153846 -5.41538462 4.06153846 -8.375 3.75 C-8.91125 3.5025 -9.4475 3.255 -10 3 C-9.34 3 -8.68 3 -8 3 C-7.67 2.01 -7.34 1.02 -7 0 C-3.86650268 -1.04449911 -3.01031744 -0.93423645 0 0 Z " fill="#49A255" transform="translate(1203,950)"/>
<path d="M0 0 C0.66 0.33 1.32 0.66 2 1 C0.66667905 4.99996286 -1.4957827 5.83782337 -5 8 C-3.375 2.25 -3.375 2.25 0 0 Z " fill="#D7EFD9" transform="translate(1057,858)"/>
<path d="M0 0 C-3.42346555 3.14958831 -6.44262737 3.56179109 -11 4 C-9 1 -9 1 -7.1875 0.3125 C-4.76407022 -0.03370425 -2.44491162 -0.06791421 0 0 Z " fill="#65B56E" transform="translate(1015,804)"/>
<path d="M0 0 C2.64 1.65 5.28 3.3 8 5 C5.3333581 6.33332095 3.83319697 5.67102033 1 5 C0.67 3.35 0.34 1.7 0 0 Z " fill="#91CE88" transform="translate(999,883)"/>
<path d="M0 0 C1.485 0.99 1.485 0.99 3 2 C3.6875 5.625 3.6875 5.625 4 9 C0.06153846 5.67692308 0.06153846 5.67692308 -0.25 2.25 C-0.1675 1.5075 -0.085 0.765 0 0 Z " fill="#61A172" transform="translate(1200,804)"/>
</svg>
